<svg xmlns="http://www.w3.org/2000/svg" xmlns:xlink="http://www.w3.org/1999/xlink" width="373" height="60" viewBox="0 0 373 60"><style>.st0{fill:#fff}.st1{fill:#6875f5}.st2{fill:#2e2e2e}</style><path class="st0" d="M192.8 13.7v14.1c-1.7-3.9-5.4-6.5-10-6.5-3.1 0-5.8 1.1-7.8 2.9l.9-2.5h-9.5l-2.8 8.1-2.8-8.1H145.4v.1c-1.1-.4-2.3-.6-3.7-.6-3 0-5.6 1.3-7.6 3.4v-3.2H132c-1.2 0-2.3.2-3.3.6v-.2h-17.5v.1c-1.1-.4-2.3-.6-3.7-.6-5.9 0-10.7 5.1-10.7 11.4 0 .7.1 1.4.2 2.1h-6.7V14.7h-9.1v28.9h18.5v-3.1c1.9 2.2 4.7 3.6 7.8 3.6 1.3 0 2.5-.2 3.7-.6v.1h17.5V33.1c0-1.6.8-2.4 2.4-2.4-.1.7-.2 1.3-.2 2 0 6.3 4.8 11.4 10.7 11.4 1.3 0 2.5-.2 3.7-.6v.1h8.7v-14l5.3 14h8.1l3.8-10c.5 6.1 5.2 10.5 11.7 10.5 4 0 7.3-1.7 9.4-4.7l.2-.3v4.5h8.7v-30h-8.4zm-84.1 21.9c-1.7 0-2.8-1.1-2.8-2.9s1.1-2.9 2.8-2.9c1.7 0 2.8 1.1 2.8 2.9s-1 2.9-2.8 2.9zm34 0c-1.7 0-2.8-1.1-2.8-2.9s1.1-2.9 2.8-2.9c1.7 0 2.8 1.1 2.8 2.9s-1 2.9-2.8 2.9zM56.8 17.5l-1.6-3.6-1.2 3.8C48.7 35 35.4 48.5 18.2 53.9 36 45 47.5 26.9 47.7 6.8V6l-.6-.5C42 1.9 36 0 29.7 0 13.3 0 0 13.4 0 29.8c0 10.4 5.3 19.9 14.1 25.3l.1.1-.3.1 3.6 1.6c3.9 1.7 8 2.6 12.2 2.6 16.4 0 29.7-13.4 29.7-29.8 0-4.2-.8-8.3-2.6-12.2z"/><defs><path id="SVGID_1_" d="M1.5 1.5h370V58H1.5z"/></defs><clipPath id="SVGID_00000112612628970019006080000010147629525258049191_"><use xlink:href="#SVGID_1_" overflow="visible"/></clipPath><path class="st1" d="M14.9 53.8c-8-5-13.4-13.9-13.4-24.1 0-15.6 12.6-28.3 28.2-28.3 5.9 0 11.7 1.8 16.5 5.3-.3 21.2-13.1 39.3-31.3 47.1zm0 0"/><path class="st1" d="M18.1 55.6c3.6 1.6 7.6 2.5 11.6 2.5 15.6 0 28.2-12.7 28.2-28.3 0-4.1-.9-8.1-2.5-11.6C50 36 35.9 50.1 18.1 55.6zm0 0"/><path class="st2" d="M88.6 36.9V16.8h-4.9v24.8H98v-4.7zM113.7 23.9V26c-1.3-1.6-3.2-2.6-5.8-2.6-4.7 0-8.6 4.1-8.6 9.3 0 5.3 3.9 9.3 8.6 9.3 2.6 0 4.5-1 5.8-2.6v2.1h4.6V23.9h-4.6zm-5 13.8c-2.8 0-4.9-2-4.9-5s2.1-5 4.9-5c2.8 0 4.9 2 4.9 5s-2 5-4.9 5zM126.9 26.9v-3h-4.6v17.7h4.6v-8.4c0-3.7 3-4.8 5.4-4.5v-5.1c-2.3-.1-4.5.9-5.4 3.3zM147.7 23.9V26c-1.3-1.6-3.2-2.6-5.8-2.6-4.7 0-8.6 4.1-8.6 9.3 0 5.3 3.9 9.3 8.6 9.3 2.6 0 4.5-1 5.8-2.6v2.1h4.5V23.9h-4.5zm-5 13.8c-2.8 0-4.9-2-4.9-5s2.1-5 4.9-5c2.8 0 4.9 2 4.9 5s-2 5-4.9 5zM167.9 23.9l-4.3 12.3-4.2-12.3h-5l6.7 17.7h5.1l6.7-17.7zM191.8 32.7c0-5.2-3.7-9.3-8.9-9.3-5.5 0-9.3 4.1-9.3 9.3 0 5.3 3.7 9.3 9.7 9.3 3.4 0 6-1.4 7.7-3.8l-3.7-2.1c-.8 1-2.2 1.8-3.9 1.8-2.4 0-4.3-1-5-3.3h13.3c0-.6.1-1.2.1-1.9zm-13.6-1.6c.5-2.3 2.2-3.6 4.6-3.6 1.9 0 3.8 1 4.4 3.6h-9zM194.9 15.8h4.5v25.8h-4.5z"/><path class="st0" d="M331.7 43.5c-5.1 0-9.4-3.7-10.4-8.6v.5h-3.5l3.4 2-.8 1.3c-1.9 3-5.2 4.8-9 4.8-6.3 0-10.9-4.5-10.9-10.8 0-2 .5-3.8 1.3-5.4h-.9c-2.7 0-4.1 1.5-4.1 4.4V43h-5.3V22.4h5.3v.7c1.1-.6 2.5-1 4.1-1h1.5v4.3c1.9-2.7 5.1-4.4 8.8-4.4 5.8 0 9.3 4.2 10.1 8.8.9-5 5.2-8.8 10.4-8.8 2.1 0 4 .6 5.6 1.7v-1.3h5.3v20.7h-5.3v-1.3c-1.6 1.1-3.5 1.7-5.6 1.7zm.1-16.3c-3.1 0-5.4 2.4-5.4 5.5s2.4 5.5 5.4 5.5c3.1 0 5.5-2.4 5.5-5.5s-2.4-5.5-5.5-5.5zm-25.4 8.2c.9 1.8 2.7 2.8 5 2.8 2 0 3.6-.8 4.4-2.2l.3-.6h-9.7zm9.2-5.3c-.9-2.1-2.8-2.9-4.4-2.9-2.2 0-4 1.1-4.8 2.9h9.2zm-45.4 13.4c-3 0-5.5-1.1-7.1-3.1v2.4l-1.3.2c-.9.1-1.8.2-2.6.2-5.4 0-6.6-3.5-6.6-6.4v-9.2h-3.3c.8 1.6 1.2 3.4 1.2 5.1 0 .4 0 .8-.1 1.2l-.1 1.4h-3.4l3.4 2-.8 1.3c-1.9 3-5.2 4.8-9 4.8-6.3 0-10.9-4.5-10.9-10.8 0-6.1 4.6-10.8 10.7-10.8 4.1 0 7 2.1 8.7 4.9v-4.5h3.7v-3.9l5.3-1.6v5.5h5.1v3.3c1.2-2.3 3.7-3.7 6.9-3.7 2.7 0 5 1 6.5 2.9v-2.4h3.7v-3.9l5.3-1.6v5.5h5.1v5.3h-5.1v9.2c0 .9.2 1.1.2 1.1s.3.2 1.3.2h1.5l2.1-.1v4.9l-1.3.2c-.9.1-1.8.2-2.6.2-5.4 0-6.6-3.5-6.6-6.4v-9.2H278l-4.6 2.7-.7-1.6c-.6-1.4-2.2-1.5-2.8-1.5-.1 0-2.2 0-2.2 1.3 0 .7 1 1.1 3.3 1.7 2.8.8 7 1.9 7 6.6.1 3.9-3.2 6.6-7.8 6.6zm-3.4-7.3c.4 1.2 1.7 2 3.4 2 1 0 2.6-.2 2.6-1.3 0-.7-1-1.1-3.3-1.7-2.8-.8-7-1.9-7-6.6 0-.3 0-.6.1-.9H258v9.2c0 .9.2 1.1.2 1.1s.3.2 1.3.2h2.3l-.3-.7 4.6-2.7.7 1.4zm-31.3-.8c.9 1.8 2.7 2.8 5 2.8 2 0 3.6-.8 4.4-2.2l.3-.6h-9.7zm9.3-5.3c-.9-2.1-2.8-2.9-4.4-2.9-2.2 0-4 1.1-4.8 2.9h9.2zm-25.5 13.4c-4.2 0-7.5-1.9-8.9-5.1l-.5-1.2 4.8-2.8.6 1.7c.5 1.4 1.9 2.1 4 2.1 4.1 0 4.1-2.6 4.1-3.5V15.3h5.5v19.2c0 5.4-3.8 9-9.6 9zm148.3-.4V30.5c0-1.5-.5-3.3-2.8-3.3-.8 0-3.4 0-3.4 4.5V43h-5.3V30.5c0-2.2-.9-3.3-2.6-3.3-2.3 0-3.6 1.7-3.6 4.5V43h-5.3V22.4h5.3v.6c1.1-.7 2.5-1 3.9-1 2.2 0 4.1.8 5.4 2.2 1.5-1.4 3.4-2.2 5.6-2.2 4.8 0 8.1 3.4 8.1 8.6v12.5h-5.3z"/><path class="st2" d="M219.3 42c4.3 0 8.1-2.4 8.1-7.4V16.8H225v17.7c0 3.6-2.4 5-5.6 5-2.6 0-4.6-.9-5.4-3.1l-2.1 1.2c1.1 3 4.1 4.4 7.4 4.4zm21-18.5c-5.5 0-9.2 4.1-9.2 9.3 0 5.3 3.8 9.3 9.4 9.3 3.6 0 6.3-1.7 7.8-4.1l-2-1.2c-1 1.7-2.9 3-5.7 3-3.7 0-6.5-2.2-7-5.8H249c0-.4.1-.7.1-1.1 0-5-3.4-9.4-8.8-9.4zm0 2.2c3 0 5.9 2 6.4 5.9h-13.2c.5-3.4 3.1-5.9 6.8-5.9zm21.3.4v-2.3h-5.1v-4.9l-2.3.7v4.2h-3.7v2.3h3.7v10.7c0 4.2 2.6 5.4 7.4 4.7v-2c-3.4.1-5.1.4-5.1-2.6V26.1h5.1zm4.7 2.4c0-1.9 1.9-2.8 3.7-2.8 1.7 0 3.5.7 4.2 2.5l1.9-1.1c-1-2.2-3.3-3.6-6.2-3.6-3.5 0-6 2.2-6 5.1 0 6.5 10.3 4 10.3 8.4 0 2.1-2 2.8-4.1 2.8-2.4 0-4.2-1.2-4.8-3l-2 1.2c.9 2.3 3.3 4.1 6.8 4.1 3.8 0 6.4-2.1 6.4-5.1.1-6.6-10.2-4.1-10.2-8.5zm22.8-2.4v-2.3H284v-4.9l-2.3.7v4.2H278v2.3h3.7v10.7c0 4.2 2.6 5.4 7.4 4.7v-2c-3.4.1-5.1.4-5.1-2.6V26.1h5.1zm6.2.7v-2.9H293v17.7h2.3v-9.8c0-4.4 2.7-5.9 5.6-5.9v-2.3c-2.3 0-4.3.7-5.6 3.2zm15.9-3.3c-5.5 0-9.2 4.1-9.2 9.3 0 5.3 3.8 9.3 9.4 9.3 3.6 0 6.3-1.7 7.8-4.1l-2-1.2c-1 1.7-2.9 3-5.7 3-3.7 0-6.5-2.2-7-5.8H320c0-.4.1-.7.1-1.1-.2-5-3.5-9.4-8.9-9.4zm0 2.2c3 0 5.9 2 6.3 5.9h-13.2c.5-3.4 3.2-5.9 6.9-5.9zm27.6-1.8v3.5c-1.5-2.4-4-3.9-7.1-3.9-5 0-9.1 4-9.1 9.3s4.1 9.3 9.1 9.3c3.1 0 5.6-1.5 7.1-3.9v3.5h2.3V23.9h-2.3zm-7 15.8c-3.9 0-7-3.1-7-7s3-7 7-7 7 3.1 7 7-3 7-7 7zm33-16.2c-2.3 0-4.4 1-5.7 3.2-1-2-2.9-3.2-5.4-3.2-2.1 0-4 .8-5.4 3v-2.6H346v17.7h2.3v-9.8c0-4.4 2.5-6 5.1-6 2.5 0 4.1 1.7 4.1 4.8v11h2.3v-9.8c0-4.4 2.2-6 4.9-6 2.5 0 4.3 1.7 4.3 4.8v11h2.3v-11c.1-4.5-2.6-7.1-6.5-7.1zm0 0"/></svg>